<?xml version="1.0" encoding="UTF-8"?>
<svg id="Layer_2" data-name="Layer 2" xmlns="http://www.w3.org/2000/svg" viewBox="0 0 755.81 627.13">
  <defs>
    <style>
      .cls-1 {
        fill: #150017;
      }
    </style>
  </defs>
  <g id="Layer_2-2" data-name="Layer 2">
    <path class="cls-1" d="m576.16,338.59c41.04-3.46,85.31,10.12,117.87,35.31,11.59,8.99,20.27,21.39,26.65,34.45,11.14,22.96,16.37,49.77,11.18,75.19-4,18.53-14,35.57-26.35,49.34-38.96,42.25-96.08,62.58-150.4,76.14-95.11,22.3-194.13,22.02-290.6,9.87-70.27-9.97-142.34-26.33-201.34-68.05-25.54-18.32-50.12-44.42-57.43-76.61-4.04-17.12-2.88-36.11,3.64-52.32,5.97-15.39,16.42-29.1,28.56-39.85,56.67-48.53,139.08-48.53,205.47-23.91,2.82,1.11,1.65,5.21-1.22,4.83-26.47-3.51-53.3-4.4-79.57-.86-25.02,3.31-50.34,10.75-71.93,23.49-24.59,14.48-50.29,40.09-44.83,70.45,9.4,45.89,81.49,74.76,121.95,88.89,109.14,37.39,226.62,52.24,341.44,38.59,66.39-7.98,180.49-32.67,202.83-104.75,6.92-27.02-.11-57.16-14.76-80.63-6.83-10.77-16.86-18.84-27.34-25.92-16.49-10.9-34.86-18.95-54.07-23.88-12.86-3.25-26.15-5.03-39.48-4.81-3.21-.03-3.37-4.63-.27-4.97h0Z"/>
    <path class="cls-1" d="m735.42,142.94c-.28-22.36-2.92-46.16-11.66-66.41-12.11-27.9-31.52-42.02-61.13-30.71-8.38,3.2-16.52,7.99-23.05,14.19-23.85,21.58-27.33,54.32-30.37,85.37-1.38,14.58-2.71,30.52-4.45,45.54-1.18,8.55-1.99,17.76-2.79,26.41-3.26,37.76-5.11,76.46-19.23,112.72-25.31,65.88-86.14,87-151.98,85-39.51-.68-80.57-9.09-112.79-33.21-15.83-11.58-29.45-27.23-40.75-42.4-14.32-18.96-26.63-38.7-43.74-54.32-23.7-22.33-55.77-31.92-87.71-34.36-36.19-3.33-72.76,4.53-106.02,19.4-10.9,4.73-21.65,10.07-32.56,15.37-2.49,1.21-5.49.18-6.7-2.31-1.13-2.34-.27-5.13,1.9-6.46,10.39-6.36,20.81-12.69,31.6-18.46,33.44-18.34,69.72-29.09,108.07-29.01,39.45-.18,78.67,9.19,109.39,35.09,28.6,23.25,46.36,56.65,73.17,80.55,24.81,22.46,56.65,31.19,89.44,32.73,40.66,1.69,89.24-2.05,116.07-36.18,26.48-35.19,25.47-84.92,29.29-127.62.83-11.67,2.33-24.71,3.51-36.48,2.38-24.62,3.23-48.95,7.94-74.06,5.39-30.49,19.18-59.58,43.93-79.89,16.02-12.99,35.45-21.33,56.11-23.11,43.2-3.8,74.5,26.7,82.45,67.39,3.38,16.49,3.11,33.31.07,49.68-1.71,9.4-4.51,18.75-8.21,27.55-2.24,5.26-9.83,3.53-9.8-1.98h0Z"/>
    <path class="cls-1" d="m529.32,217.33c-9.24-25.05-22.08-49.09-37.21-70.96-11.35-16.46-25.36-30.96-41.14-43.25-44.46-35.31-101.55-48.75-156.17-30.99-5.08,1.48-9.98,3.4-14.95,5.24-5.64,1.96-9.45-5.78-4.28-9.01,11.02-6.75,22.95-12.35,35.29-16.29,75.82-25.29,160.08,15.09,203.78,78.65,16.38,23.67,29.34,57.7,24.68,86.71-1.38,5.43-8.62,5.23-10-.12h0Z"/>
    <path class="cls-1" d="m482.7,266.46c-8.82-21.13-19.39-41.93-31.7-61.12-9.07-14.39-20.48-27.32-33.32-38.46-41.26-35.83-92.32-47.2-143.48-25.87-5.59,2.29-9.8-5.37-4.7-8.83,3.28-2.19,6.81-4.26,10.28-6.19,19.46-10.54,41.66-15.98,63.83-15.3,50.18,1.45,96.16,31.75,124.94,71.69,16.38,22.59,27.34,50.56,25.05,78.77-.2,1.81-.48,3.62-.89,5.38-1.44,5.35-8.47,5.17-10-.06h0Z"/>
    <path class="cls-1" d="m413.08,311.81c-8.36-15.82-17.21-31.74-27.39-46.36-4.87-7.34-10.8-13.98-16.99-20.22-34.39-33.13-78.3-45.28-123.93-28.72-2.63.89-5.49-.52-6.38-3.15-.75-2.21.13-4.58,2-5.81,8.55-5.64,17.99-10.23,28.06-13.39,52.41-16.71,110.07,11.91,139.86,55.8,11.81,17.49,19.78,40.91,14.76,61.97-1.14,4.24-7.05,5-9.22,1.22,0,0-.78-1.33-.78-1.33h0Z"/>
    <path class="cls-1" d="m621.78,385.03c.35,17.05-5.4,34.03-15.68,47.69-6.35,8.25-14.55,14.88-23.35,20.33-17.56,10.7-38.95,18.13-59.59,12.65-6.91-1.84-13.49-5.04-18.7-9.7-2.12-1.9-2.3-5.15-.4-7.26,1.33-1.48,3.28-1.99,5.09-1.57,24.79,5.25,50.04-1.91,70.83-15.62,11.73-7.44,20.47-18.42,26.19-31.09,2.36-5.28,4.32-10.87,5.69-16.49,1.47-5.65,9.7-4.75,9.92,1.07h0Z"/>
    <path class="cls-1" d="m172.77,518.19c-24.96.37-51.97-6.38-69.61-25.32-5.18-5.76-9.32-12.33-12.35-19.51-8.6-20.17-4.7-42.18,13.58-55.47,6.34-4.54,13.26-7.45,20.33-8.86,2.78-.55,5.49,1.25,6.04,4.04.37,1.87-.32,3.71-1.66,4.88-4.75,4.04-9.52,7.99-13.43,12.6-12.14,13.88-10.82,29.72-1.45,44.61,8.95,14.62,25.1,22.5,41.02,28,6.06,2,12.18,3.69,18.47,5.08,5.73,1.34,4.96,9.71-.93,9.96h0Z"/>
    <path class="cls-1" d="m433.94,466.58c-2.1,1.7-4.27,2.52-6.59,3.58-5.42,2.3-10.97,4.15-16.59,5.79-18.89,5.37-38.41,8.85-58.22,7.73-30.36-2.33-68.66-19.57-81.16-49.07-1.64-3.98-2.77-8.2-3.07-12.49-.19-2.82,1.94-5.27,4.76-5.46,2.04-.14,3.86.93,4.82,2.59,3.7,5.8,7.96,10.69,12.88,15.15,17.69,15.44,40.04,27.15,63.5,30.49,17.68,1.99,35.88.25,53.53-2.27,6.57-1.05,13.2-2.07,19.58-3.86.14-.04.29-.09.36-.1.1-.02.08-.01-.15.21,5.18-4.04,11.35,3.35,6.35,7.72h0Z"/>
  </g>
</svg>